<svg id="Layer_2" version="1.1" width="100" height="100" xmlns="http://www.w3.org/2000/svg"><defs id="defs1"><style id="style1">.cls-1{fill:#f2e5d8}</style></defs><g id="Background" transform="scale(.19531)" style="fill:#1c1717;fill-opacity:1;stroke-width:5.12002px"><path id="rect1" style="fill:#1c1717;fill-opacity:1;stroke-width:5.12002px" d="M0 0h512v512H0z"/></g><g id="Illustrations" transform="rotate(180 48.888 48.89) scale(.18663)" style="fill:#f2e6d9;fill-opacity:1;stroke:none;stroke-width:5.35818px;stroke-dasharray:none;stroke-opacity:1"><g id="g2" style="fill:#f2e6d9;fill-opacity:1;stroke:none;stroke-width:5.35818px;stroke-dasharray:none;stroke-opacity:1"><path class="cls-1" d="M370.55 281.46 326 236.91 205.08 357.83c-25.46 25.46-38.18 38.18-63.64 12.73-25.46-25.46-12.73-38.18 12.73-63.64l-25.46-25.46c-25 25-57.28 57.28-6.36 108.19s82.73 19.09 108.19-6.36l31.82-31.82 19.09 19.09c38.18 38.18 63.64 38.18 95.46 6.36 31.82-31.82 31.82-57.28-6.36-95.46zm-12.73 76.37c-25.46 25.46-38.18 12.73-57.28-6.36l-19.09-19.09 50.91-50.91 19.09 19.09c19.09 19.09 31.82 31.82 6.36 57.28z" id="path1" style="fill:#f2e6d9;fill-opacity:1;stroke:none;stroke-width:5.35818px;stroke-dasharray:none;stroke-opacity:1"/><path class="cls-1" d="M389.64 122.36c-50.91-50.91-82.73-19.09-108.19 6.36l-31.82 31.82-19.09-19.09c-38.18-38.18-63.64-38.18-95.46-6.36-31.82 31.82-31.82 57.28 6.36 95.46l44.55 44.55 120.92-120.92c25.46-25.46 38.18-38.18 63.64-12.73 25.46 25.46 12.73 38.18-12.73 63.64l25.46 25.46c25-25 57.28-57.28 6.36-108.19zM179.63 230.55l-19.09-19.09c-19.09-19.09-31.82-31.82-6.36-57.28s38.18-12.73 57.28 6.36l19.09 19.09-50.91 50.91z" id="path2" style="fill:#f2e6d9;fill-opacity:1;stroke:none;stroke-width:5.35818px;stroke-dasharray:none;stroke-opacity:1"/></g></g></svg>