<?xml version="1.0" encoding="UTF-8" standalone="no"?>
<svg
   id="Layer_2"
   viewBox="0 0 100 100"
   version="1.1"
   width="100"
   height="100"
   xmlns="http://www.w3.org/2000/svg"
   xmlns:svg="http://www.w3.org/2000/svg"
   xmlns:rdf="http://www.w3.org/1999/02/22-rdf-syntax-ns#"
   xmlns:cc="http://creativecommons.org/ns#"
   xmlns:dc="http://purl.org/dc/elements/1.1/">
  <title
     id="title1">Jacob Perez</title>
  <defs
     id="defs1">
    <style
       id="style1">.cls-1{fill:#f2e5d8;}.cls-2{fill:#221d1d;}</style>
  </defs>
  <g
     id="Background"
     transform="scale(0.1953125)"
     style="fill:#1c1717;fill-opacity:1;stroke-width:5.12002">
    <rect
       class="cls-2"
       width="512"
       height="512"
       id="rect1"
       style="fill:#1c1717;fill-opacity:1;stroke-width:5.12002"
       x="0"
       y="0" />
  </g>
  <g
     id="Illustrations"
     transform="matrix(-0.18677026,0,0,-0.18677026,97.812254,97.83658)"
     style="stroke:none;stroke-width:5.35417;stroke-dasharray:none">
    <g
       id="g2"
       style="stroke:none;stroke-width:5.35417;stroke-dasharray:none">
      <path
         class="cls-1"
         d="M 370.55,281.46 326,236.91 c -0.26,0.26 -120.92,120.92 -120.92,120.92 -25.46,25.46 -38.18,38.18 -63.64,12.73 -25.46,-25.46 -12.73,-38.18 12.73,-63.64 l -25.46,-25.46 c -25,25 -57.28,57.28 -6.36,108.19 50.92,50.91 82.73,19.09 108.19,-6.36 l 31.82,-31.82 19.09,19.09 c 38.18,38.18 63.64,38.18 95.46,6.36 31.82,-31.82 31.82,-57.28 -6.36,-95.46 z m -12.73,76.37 c -25.46,25.46 -38.18,12.73 -57.28,-6.36 l -19.09,-19.09 50.91,-50.91 19.09,19.09 c 19.09,19.09 31.82,31.82 6.36,57.28 z"
         id="path1"
         style="stroke:none;stroke-width:5.35417;stroke-dasharray:none" />
      <path
         class="cls-1"
         d="m 389.64,122.36 c -50.91,-50.91 -82.73,-19.09 -108.19,6.36 l -31.82,31.82 -19.09,-19.09 c -38.18,-38.18 -63.64,-38.18 -95.46,-6.36 -31.82,31.82 -31.82,57.28 6.36,95.46 l 44.55,44.55 c 0.26,-0.26 120.92,-120.92 120.92,-120.92 25.46,-25.46 38.18,-38.18 63.64,-12.73 25.46,25.46 12.73,38.18 -12.73,63.64 l 25.46,25.46 c 25,-25 57.28,-57.28 6.36,-108.19 z M 179.63,230.55 160.54,211.46 c -19.09,-19.09 -31.82,-31.82 -6.36,-57.28 25.46,-25.46 38.18,-12.73 57.28,6.36 l 19.09,19.09 -50.91,50.91 z"
         id="path2"
         style="stroke:none;stroke-width:5.35417;stroke-dasharray:none" />
    </g>
  </g>
  <metadata
     id="metadata1">
    <rdf:RDF>
      <cc:Work
         rdf:about="">
        <dc:title>Jacob Perez</dc:title>
      </cc:Work>
    </rdf:RDF>
  </metadata>
</svg>
